<svg width="512" height="512" version="1.1" xmlns="http://www.w3.org/2000/svg" desc="Created with imagetracer.js version 1.2.6" ><path fill="rgb(128,197,112)" stroke="rgb(128,197,112)" stroke-width="1" opacity="0.44313725490196076" d="M 255.5 0 L 248 8.5 L 228.5 34 L 229 32.5 Q 240.1 14.1 255.5 0 Z " /><path fill="rgb(128,197,112)" stroke="rgb(128,197,112)" stroke-width="1" opacity="0.44313725490196076" d="M 259.5 3 L 264.5 9 L 259.5 3 Z " /><path fill="rgb(128,197,112)" stroke="rgb(128,197,112)" stroke-width="1" opacity="0.44313725490196076" d="M 266.5 11 L 269.5 15 L 266.5 11 Z " /><path fill="rgb(128,197,112)" stroke="rgb(128,197,112)" stroke-width="1" opacity="0.44313725490196076" d="M 271.5 17 L 274.5 21 L 271.5 17 Z " /><path fill="rgb(128,197,112)" stroke="rgb(128,197,112)" stroke-width="1" opacity="0.44313725490196076" d="M 275.5 22 L 276.5 24 L 275.5 22 Z " /><path fill="rgb(128,197,112)" stroke="rgb(128,197,112)" stroke-width="1" opacity="0.44313725490196076" d="M 278.5 26 L 279.5 28 L 278.5 26 Z " /><path fill="rgb(128,197,112)" stroke="rgb(128,197,112)" stroke-width="1" opacity="0.44313725490196076" d="M 280.5 29 L 282.5 32 L 280.5 29 Z " /><path fill="rgb(128,197,112)" stroke="rgb(128,197,112)" stroke-width="1" opacity="0.44313725490196076" d="M 227.5 35 L 227 36.5 L 218.5 50 L 219 48.5 L 227.5 35 Z " /><path fill="rgb(128,197,112)" stroke="rgb(128,197,112)" stroke-width="1" opacity="0.44313725490196076" d="M 288.5 41 L 289.5 43 L 288.5 41 Z " /><path fill="rgb(128,197,112)" stroke="rgb(128,197,112)" stroke-width="1" opacity="0.44313725490196076" d="M 290.5 44 L 291.5 46 L 290.5 44 Z " /><path fill="rgb(128,197,112)" stroke="rgb(128,197,112)" stroke-width="1" opacity="0.44313725490196076" d="M 102 45 L 105 45.5 L 103 46 L 102.5 48 L 102 45 Z " /><path fill="rgb(128,197,112)" stroke="rgb(128,197,112)" stroke-width="1" opacity="0.44313725490196076" d="M 407.5 45 Q 410.8 43.9 410 46.5 L 408.5 46 L 405.5 47 L 405.5 46 L 407.5 45 Z " /><path fill="rgb(128,197,112)" stroke="rgb(128,197,112)" stroke-width="1" opacity="0.44313725490196076" d="M 402.5 47 L 404 47.5 L 396.5 51 L 396.5 50 L 402.5 47 Z " /><path fill="rgb(128,197,112)" stroke="rgb(128,197,112)" stroke-width="1" opacity="0.44313725490196076" d="M 217.5 51 L 217 52.5 L 203.5 79 L 203 77.5 L 217.5 51 Z " /><path fill="rgb(128,197,112)" stroke="rgb(128,197,112)" stroke-width="1" opacity="0.44313725490196076" d="M 294.5 51 L 295.5 53 L 294.5 51 Z " /><path fill="rgb(128,197,112)" stroke="rgb(128,197,112)" stroke-width="1" opacity="0.44313725490196076" d="M 100.5 52 L 101 54.5 L 100 54.5 L 100.5 52 Z " /><path fill="rgb(128,197,112)" stroke="rgb(128,197,112)" stroke-width="1" opacity="0.44313725490196076" d="M 392.5 52 L 391.5 54 L 385.5 57 L 386.5 55 L 392.5 52 Z " /><path fill="rgb(128,197,112)" stroke="rgb(128,197,112)" stroke-width="1" opacity="0.44313725490196076" d="M 125.5 55 L 126.5 57 L 125.5 55 Z " /><path fill="rgb(128,197,112)" stroke="rgb(128,197,112)" stroke-width="1" opacity="0.44313725490196076" d="M 99.5 56 L 100 58.5 L 99 58.5 L 99.5 56 Z " /><path fill="rgb(128,197,112)" stroke="rgb(128,197,112)" stroke-width="1" opacity="0.44313725490196076" d="M 297.5 56 L 300 59.5 L 298 58.5 L 297.5 56 Z " /><path fill="rgb(128,197,112)" stroke="rgb(128,197,112)" stroke-width="1" opacity="0.44313725490196076" d="M 383.5 57 L 382.5 59 Q 358.7 72.2 341 91.5 L 322.5 114 L 324 111.5 Q 335.1 94.1 350.5 81 Q 365.2 67.2 383.5 57 Z " /><path fill="rgb(128,197,112)" stroke="rgb(128,197,112)" stroke-width="1" opacity="0.44313725490196076" d="M 132.5 59 L 133.5 61 L 132.5 59 Z " /><path fill="rgb(128,197,112)" stroke="rgb(128,197,112)" stroke-width="1" opacity="0.44313725490196076" d="M 98.5 60 L 99 63.5 L 98 63.5 L 98.5 60 Z " /><path fill="rgb(128,197,112)" stroke="rgb(128,197,112)" stroke-width="1" opacity="0.44313725490196076" d="M 135.5 61 L 136.5 63 L 135.5 61 Z " /><path fill="rgb(128,197,112)" stroke="rgb(128,197,112)" stroke-width="1" opacity="0.44313725490196076" d="M 138.5 63 L 139.5 65 L 138.5 63 Z " /><path fill="rgb(128,197,112)" stroke="rgb(128,197,112)" stroke-width="1" opacity="0.44313725490196076" d="M 141.5 65 L 142.5 67 L 141.5 65 Z " /><path fill="rgb(128,197,112)" stroke="rgb(128,197,112)" stroke-width="1" opacity="0.44313725490196076" d="M 97.5 66 L 98 70.5 L 97 70.5 L 97.5 66 Z " /><path fill="rgb(128,197,112)" stroke="rgb(128,197,112)" stroke-width="1" opacity="0.44313725490196076" d="M 145.5 68 L 146.5 70 L 145.5 68 Z " /><path fill="rgb(128,197,112)" stroke="rgb(128,197,112)" stroke-width="1" opacity="0.44313725490196076" d="M 149.5 71 L 151.5 74 L 149.5 71 Z " /><path fill="rgb(128,197,112)" stroke="rgb(128,197,112)" stroke-width="1" opacity="0.44313725490196076" d="M 96.5 72 L 97 76.5 L 96 76.5 L 96.5 72 Z " /><path fill="rgb(128,197,112)" stroke="rgb(128,197,112)" stroke-width="1" opacity="0.44313725490196076" d="M 415.5 72 L 416 74.5 L 415 74.5 L 415.5 72 Z " /><path fill="rgb(128,197,112)" stroke="rgb(128,197,112)" stroke-width="1" opacity="0.44313725490196076" d="M 154.5 75 L 157.5 79 L 154.5 75 Z " /><path fill="rgb(128,197,112)" stroke="rgb(128,197,112)" stroke-width="1" opacity="0.44313725490196076" d="M 95.5 80 L 96 88.5 L 95 88.5 L 95.5 80 Z " /><path fill="rgb(128,197,112)" stroke="rgb(128,197,112)" stroke-width="1" opacity="0.44313725490196076" d="M 202.5 80 L 203 81.5 L 199.5 88 L 199 86.5 L 202.5 80 Z " /><path fill="rgb(128,197,112)" stroke="rgb(128,197,112)" stroke-width="1" opacity="0.44313725490196076" d="M 416.5 80 L 417 83.5 L 416 83.5 L 416.5 80 Z " /><path fill="rgb(128,197,112)" stroke="rgb(128,197,112)" stroke-width="1" opacity="0.44313725490196076" d="M 161.5 81 L 173.5 94 L 161.5 81 Z " /><path fill="rgb(128,197,112)" stroke="rgb(128,197,112)" stroke-width="1" opacity="0.44313725490196076" d="M 198.5 89 L 199 90.5 L 197.5 93 L 197 91.5 L 198.5 89 Z " /><path fill="rgb(128,197,112)" stroke="rgb(128,197,112)" stroke-width="1" opacity="0.44313725490196076" d="M 196.5 94 L 197 95.5 L 194.5 101 L 194 99.5 L 196.5 94 Z " /><path fill="rgb(128,197,112)" stroke="rgb(128,197,112)" stroke-width="1" opacity="0.44313725490196076" d="M 177.5 98 L 180.5 102 L 177.5 98 Z " /><path fill="rgb(128,197,112)" stroke="rgb(128,197,112)" stroke-width="1" opacity="0.44313725490196076" d="M 193.5 102 L 194 103.5 L 192.5 106 L 192 104.5 L 193.5 102 Z " /><path fill="rgb(128,197,112)" stroke="rgb(128,197,112)" stroke-width="1" opacity="0.44313725490196076" d="M 182.5 104 L 184.5 107 L 182.5 104 Z " /><path fill="rgb(128,197,112)" stroke="rgb(128,197,112)" stroke-width="1" opacity="0.44313725490196076" d="M 186.5 109 L 187.5 111 L 186.5 109 Z " /><path fill="rgb(128,197,112)" stroke="rgb(128,197,112)" stroke-width="1" opacity="0.44313725490196076" d="M 95.5 110 L 96 118.5 L 95 118.5 L 95.5 110 Z " /><path fill="rgb(128,197,112)" stroke="rgb(128,197,112)" stroke-width="1" opacity="0.44313725490196076" d="M 416.5 115 L 417 118.5 L 416 118.5 L 416.5 115 Z " /><path fill="rgb(128,197,112)" stroke="rgb(128,197,112)" stroke-width="1" opacity="0.44313725490196076" d="M 96.5 122 L 97 127.5 L 96 127.5 L 96.5 122 Z " /><path fill="rgb(128,197,112)" stroke="rgb(128,197,112)" stroke-width="1" opacity="0.44313725490196076" d="M 415.5 125 L 416 127.5 L 415 127.5 L 415.5 125 Z " /><path fill="rgb(128,197,112)" stroke="rgb(128,197,112)" stroke-width="1" opacity="0.44313725490196076" d="M 97.5 129 L 98 133.5 L 97 133.5 L 97.5 129 Z " /><path fill="rgb(128,197,112)" stroke="rgb(128,197,112)" stroke-width="1" opacity="0.44313725490196076" d="M 98.5 136 L 99 139.5 L 98 139.5 L 98.5 136 Z " /><path fill="rgb(128,197,112)" stroke="rgb(128,197,112)" stroke-width="1" opacity="0.44313725490196076" d="M 54 139 L 57 139.5 L 55 140 L 54.5 152 L 54 139 Z " /><path fill="rgb(128,197,112)" stroke="rgb(128,197,112)" stroke-width="1" opacity="0.44313725490196076" d="M 455.5 139 Q 460.1 137.7 458 143.5 L 457 143.5 Q 458.5 139.1 455.5 140 L 444.5 146 L 445.5 144 L 455.5 139 Z " /><path fill="rgb(128,197,112)" stroke="rgb(128,197,112)" stroke-width="1" opacity="0.44313725490196076" d="M 99.5 141 L 100 143.5 L 99 143.5 L 99.5 141 Z " /><path fill="rgb(128,197,112)" stroke="rgb(128,197,112)" stroke-width="1" opacity="0.44313725490196076" d="M 66.5 144 L 67.5 146 L 66.5 144 Z " /><path fill="rgb(128,197,112)" stroke="rgb(128,197,112)" stroke-width="1" opacity="0.44313725490196076" d="M 100.5 145 L 101 148.5 L 100 148.5 L 100.5 145 Z " /><path fill="rgb(128,197,112)" stroke="rgb(128,197,112)" stroke-width="1" opacity="0.44313725490196076" d="M 442.5 146 L 441.5 148 L 431.5 153 L 432.5 151 L 442.5 146 Z " /><path fill="rgb(128,197,112)" stroke="rgb(128,197,112)" stroke-width="1" opacity="0.44313725490196076" d="M 101.5 150 L 103 155.5 L 102 155.5 L 101.5 150 Z " /><path fill="rgb(128,197,112)" stroke="rgb(128,197,112)" stroke-width="1" opacity="0.44313725490196076" d="M 79.5 151 L 80.5 153 L 79.5 151 Z " /><path fill="rgb(128,197,112)" stroke="rgb(128,197,112)" stroke-width="1" opacity="0.44313725490196076" d="M 429.5 153 L 428.5 155 L 406 167 L 406.5 165 L 408.5 165 L 429.5 153 Z " /><path fill="rgb(128,197,112)" stroke="rgb(128,197,112)" stroke-width="1" opacity="0.44313725490196076" d="M 86.5 155 L 87.5 157 L 86.5 155 Z " /><path fill="rgb(128,197,112)" stroke="rgb(128,197,112)" stroke-width="1" opacity="0.44313725490196076" d="M 103.5 157 L 105 162.5 L 104 162.5 L 103.5 157 Z " /><path fill="rgb(128,197,112)" stroke="rgb(128,197,112)" stroke-width="1" opacity="0.44313725490196076" d="M 93.5 159 L 94.5 161 L 93.5 159 Z " /><path fill="rgb(128,197,112)" stroke="rgb(128,197,112)" stroke-width="1" opacity="0.44313725490196076" d="M 98.5 162 L 99.5 164 L 98.5 162 Z " /><path fill="rgb(128,197,112)" stroke="rgb(128,197,112)" stroke-width="1" opacity="0.44313725490196076" d="M 105.5 164 L 106 166.5 L 105 166.5 L 105.5 164 Z " /><path fill="rgb(128,197,112)" stroke="rgb(128,197,112)" stroke-width="1" opacity="0.44313725490196076" d="M 54.5 174 L 55 186.5 L 54 186.5 L 54.5 174 Z " /><path fill="rgb(128,197,112)" stroke="rgb(128,197,112)" stroke-width="1" opacity="0.44313725490196076" d="M 457.5 180 L 458 186.5 L 457 186.5 L 457.5 180 Z " /><path fill="rgb(128,197,112)" stroke="rgb(128,197,112)" stroke-width="1" opacity="0.44313725490196076" d="M 55.5 191 L 56 196.5 L 55 196.5 L 55.5 191 Z " /><path fill="rgb(128,197,112)" stroke="rgb(128,197,112)" stroke-width="1" opacity="0.44313725490196076" d="M 456.5 194 L 457 196.5 L 456 196.5 L 456.5 194 Z " /><path fill="rgb(128,197,112)" stroke="rgb(128,197,112)" stroke-width="1" opacity="0.44313725490196076" d="M 56.5 200 L 57 205.5 L 56 205.5 L 56.5 200 Z " /><path fill="rgb(128,197,112)" stroke="rgb(128,197,112)" stroke-width="1" opacity="0.44313725490196076" d="M 455.5 203 L 456 205.5 L 455 205.5 L 455.5 203 Z " /><path fill="rgb(128,197,112)" stroke="rgb(128,197,112)" stroke-width="1" opacity="0.44313725490196076" d="M 57.5 209 L 58 212.5 L 57 212.5 L 57.5 209 Z " /><path fill="rgb(128,197,112)" stroke="rgb(128,197,112)" stroke-width="1" opacity="0.44313725490196076" d="M 58.5 214 L 59 218.5 L 58 218.5 L 58.5 214 Z " /><path fill="rgb(128,197,112)" stroke="rgb(128,197,112)" stroke-width="1" opacity="0.44313725490196076" d="M 59.5 220 L 60 224.5 L 59 224.5 L 59.5 220 Z " /><path fill="rgb(128,197,112)" stroke="rgb(128,197,112)" stroke-width="1" opacity="0.44313725490196076" d="M 452.5 222 L 453 224.5 L 452 224.5 L 452.5 222 Z " /><path fill="rgb(128,197,112)" stroke="rgb(128,197,112)" stroke-width="1" opacity="0.44313725490196076" d="M 60.5 226 L 61 229.5 L 60 229.5 L 60.5 226 Z " /><path fill="rgb(128,197,112)" stroke="rgb(128,197,112)" stroke-width="1" opacity="0.44313725490196076" d="M 61.5 231 L 62 233.5 L 61 233.5 L 61.5 231 Z " /><path fill="rgb(128,197,112)" stroke="rgb(128,197,112)" stroke-width="1" opacity="0.44313725490196076" d="M 62.5 235 L 63 237.5 L 62 237.5 L 62.5 235 Z " /><path fill="rgb(128,197,112)" stroke="rgb(128,197,112)" stroke-width="1" opacity="0.44313725490196076" d="M 63.5 239 L 64 241.5 L 63 241.5 L 63.5 239 Z " /><path fill="rgb(128,197,112)" stroke="rgb(128,197,112)" stroke-width="1" opacity="0.44313725490196076" d="M 64.5 243 L 65 245.5 L 64 245.5 L 64.5 243 Z " /><path fill="rgb(128,197,112)" stroke="rgb(128,197,112)" stroke-width="1" opacity="0.44313725490196076" d="M 65.5 247 L 66 249.5 L 65 249.5 L 65.5 247 Z " /><path fill="rgb(128,197,112)" stroke="rgb(128,197,112)" stroke-width="1" opacity="0.44313725490196076" d="M 69.5 260 L 72 265.5 L 71 265.5 L 69.5 260 Z " /><path fill="rgb(128,197,112)" stroke="rgb(128,197,112)" stroke-width="1" opacity="0.44313725490196076" d="M 72.5 267 L 75 271.5 L 73 270.5 L 72.5 267 Z " /><path fill="rgb(128,197,112)" stroke="rgb(128,197,112)" stroke-width="1" opacity="0.44313725490196076" d="M 438.5 270 L 437.5 272 L 438.5 270 Z " /><path fill="rgb(128,197,112)" stroke="rgb(128,197,112)" stroke-width="1" opacity="0.44313725490196076" d="M 76.5 275 Q 87.1 294.4 103.5 308 L 112 314.5 L 109.5 313 Q 96.7 305.3 88 293.5 L 78 279.5 L 76.5 275 Z " /><path fill="rgb(128,197,112)" stroke="rgb(128,197,112)" stroke-width="1" opacity="0.44313725490196076" d="M 433.5 279 L 432.5 281 L 433.5 279 Z " /><path fill="rgb(128,197,112)" stroke="rgb(128,197,112)" stroke-width="1" opacity="0.44313725490196076" d="M 431.5 282 L 430.5 284 L 431.5 282 Z " /><path fill="rgb(128,197,112)" stroke="rgb(128,197,112)" stroke-width="1" opacity="0.44313725490196076" d="M 429.5 285 L 428.5 287 L 429.5 285 Z " /><path fill="rgb(128,197,112)" stroke="rgb(128,197,112)" stroke-width="1" opacity="0.44313725490196076" d="M 426.5 289 L 424.5 292 L 426.5 289 Z " /><path fill="rgb(128,197,112)" stroke="rgb(128,197,112)" stroke-width="1" opacity="0.44313725490196076" d="M 423.5 293 L 418.5 299 L 423.5 293 Z " /><path fill="rgb(128,197,112)" stroke="rgb(128,197,112)" stroke-width="1" opacity="0.44313725490196076" d="M 415.5 301 L 408.5 309 L 415.5 301 Z " /><path fill="rgb(128,197,112)" stroke="rgb(128,197,112)" stroke-width="1" opacity="0.44313725490196076" d="M 405.5 310 L 403.5 313 L 405.5 310 Z " /><path fill="rgb(128,197,112)" stroke="rgb(128,197,112)" stroke-width="1" opacity="0.44313725490196076" d="M 113.5 315 L 118 318.5 L 116.5 318 L 113.5 315 Z " /><path fill="rgb(128,197,112)" stroke="rgb(128,197,112)" stroke-width="1" opacity="0.44313725490196076" d="M 397.5 316 L 396.5 318 L 397.5 316 Z " /><path fill="rgb(128,197,112)" stroke="rgb(128,197,112)" stroke-width="1" opacity="0.44313725490196076" d="M 119.5 319 L 125 322.5 L 123.5 322 Q 119.5 321.5 119.5 319 Z " /><path fill="rgb(128,197,112)" stroke="rgb(128,197,112)" stroke-width="1" opacity="0.44313725490196076" d="M 392.5 319 L 391.5 321 L 392.5 319 Z " /><path fill="rgb(128,197,112)" stroke="rgb(128,197,112)" stroke-width="1" opacity="0.44313725490196076" d="M 128.5 324 L 136 327.5 L 115.5 328 L 115.5 327 L 132 326.5 Q 127.8 325.9 128.5 324 Z " /><path fill="rgb(128,197,112)" stroke="rgb(128,197,112)" stroke-width="1" opacity="0.44313725490196076" d="M 379.5 326 L 380.5 327 L 397 327.5 L 377.5 328 L 377.5 327 L 379.5 326 Z " /><path fill="rgb(128,197,112)" stroke="rgb(128,197,112)" stroke-width="1" opacity="0.44313725490196076" d="M 106.5 330 L 105.5 332 L 106.5 330 Z " /><path fill="rgb(128,197,112)" stroke="rgb(128,197,112)" stroke-width="1" opacity="0.44313725490196076" d="M 103.5 332 L 101.5 335 L 103.5 332 Z " /><path fill="rgb(128,197,112)" stroke="rgb(128,197,112)" stroke-width="1" opacity="0.44313725490196076" d="M 408.5 332 L 410.5 335 L 408.5 332 Z " /><path fill="rgb(128,197,112)" stroke="rgb(128,197,112)" stroke-width="1" opacity="0.44313725490196076" d="M 100.5 336 L 99.5 338 L 100.5 336 Z " /><path fill="rgb(128,197,112)" stroke="rgb(128,197,112)" stroke-width="1" opacity="0.44313725490196076" d="M 100.5 360 L 108 366.5 L 106.5 366 L 100.5 360 Z " /><path fill="rgb(128,197,112)" stroke="rgb(128,197,112)" stroke-width="1" opacity="0.44313725490196076" d="M 411.5 360 L 406.5 366 L 411.5 360 Z " /><path fill="rgb(128,197,112)" stroke="rgb(128,197,112)" stroke-width="1" opacity="0.44313725490196076" d="M 112.5 368 L 116 368.5 L 112.5 369 L 112.5 368 Z " /><path fill="rgb(128,197,112)" stroke="rgb(128,197,112)" stroke-width="1" opacity="0.44313725490196076" d="M 127.5 371 L 128 373.5 L 127 373.5 L 127.5 371 Z " /><path fill="rgb(128,197,112)" stroke="rgb(128,197,112)" stroke-width="1" opacity="0.44313725490196076" d="M 128.5 376 L 129 378.5 L 128 378.5 L 128.5 376 Z " /><path fill="rgb(128,197,112)" stroke="rgb(128,197,112)" stroke-width="1" opacity="0.44313725490196076" d="M 129.5 381 L 130 383.5 L 129 383.5 L 129.5 381 Z " /><path fill="rgb(128,197,112)" stroke="rgb(128,197,112)" stroke-width="1" opacity="0.44313725490196076" d="M 130.5 387 L 131 389.5 L 130 389.5 L 130.5 387 Z " /><path fill="rgb(128,197,112)" stroke="rgb(128,197,112)" stroke-width="1" opacity="0.44313725490196076" d="M 131.5 392 L 132 394.5 L 131 394.5 L 131.5 392 Z " /><path fill="rgb(128,197,112)" stroke="rgb(128,197,112)" stroke-width="1" opacity="0.44313725490196076" d="M 132.5 397 L 133 400.5 L 132 400.5 L 132.5 397 Z " /><path fill="rgb(128,197,112)" stroke="rgb(128,197,112)" stroke-width="1" opacity="0.44313725490196076" d="M 133.5 403 L 134 405.5 L 133 405.5 L 133.5 403 Z " /><path fill="rgb(128,197,112)" stroke="rgb(128,197,112)" stroke-width="1" opacity="0.44313725490196076" d="M 134.5 408 L 135 410.5 L 134 410.5 L 134.5 408 Z " /><path fill="rgb(128,197,112)" stroke="rgb(128,197,112)" stroke-width="1" opacity="0.44313725490196076" d="M 135.5 414 L 136 416.5 L 135 416.5 L 135.5 414 Z " /><path fill="rgb(128,197,112)" stroke="rgb(128,197,112)" stroke-width="1" opacity="0.44313725490196076" d="M 136.5 419 L 137 421.5 L 136 421.5 L 136.5 419 Z " /><path fill="rgb(128,197,112)" stroke="rgb(128,197,112)" stroke-width="1" opacity="0.44313725490196076" d="M 137.5 424 L 138 426.5 L 137 426.5 L 137.5 424 Z " /><path fill="rgb(128,197,112)" stroke="rgb(128,197,112)" stroke-width="1" opacity="0.44313725490196076" d="M 138.5 430 L 139 432.5 L 138 432.5 L 138.5 430 Z " /><path fill="rgb(128,197,112)" stroke="rgb(128,197,112)" stroke-width="1" opacity="0.44313725490196076" d="M 139.5 435 L 140 437.5 L 139 437.5 L 139.5 435 Z " /><path fill="rgb(128,197,112)" stroke="rgb(128,197,112)" stroke-width="1" opacity="0.44313725490196076" d="M 140.5 441 L 141 443.5 L 140 443.5 L 140.5 441 Z " /><path fill="rgb(128,197,112)" stroke="rgb(128,197,112)" stroke-width="1" opacity="0.44313725490196076" d="M 141.5 446 L 142 448.5 L 141 448.5 L 141.5 446 Z " /><path fill="rgb(128,197,112)" stroke="rgb(128,197,112)" stroke-width="1" opacity="0.44313725490196076" d="M 142.5 451 L 143 453.5 L 142 453.5 L 142.5 451 Z " /><path fill="rgb(128,197,112)" stroke="rgb(128,197,112)" stroke-width="1" opacity="0.44313725490196076" d="M 143.5 457 L 144 459.5 L 143 459.5 L 143.5 457 Z " /><path fill="rgb(128,197,112)" stroke="rgb(128,197,112)" stroke-width="1" opacity="0.44313725490196076" d="M 144.5 462 L 145 464.5 L 144 464.5 L 144.5 462 Z " /><path fill="rgb(128,197,112)" stroke="rgb(128,197,112)" stroke-width="1" opacity="0.44313725490196076" d="M 152.5 484 L 153.5 486 L 152.5 484 Z " /><path fill="rgb(128,197,112)" stroke="rgb(128,197,112)" stroke-width="1" opacity="0.44313725490196076" d="M 154.5 487 L 156.5 490 L 154.5 487 Z " /><path fill="rgb(128,197,112)" stroke="rgb(128,197,112)" stroke-width="1" opacity="0.44313725490196076" d="M 357.5 487 L 356.5 489 L 357.5 487 Z " /><path fill="rgb(128,197,112)" stroke="rgb(128,197,112)" stroke-width="1" opacity="0.44313725490196076" d="M 157.5 491 L 169 501.5 L 166.5 500 L 157.5 491 Z " /><path fill="rgb(128,197,112)" stroke="rgb(128,197,112)" stroke-width="1" opacity="0.44313725490196076" d="M 354.5 491 L 346.5 500 L 354.5 491 Z " /><path fill="rgb(128,197,112)" stroke="rgb(128,197,112)" stroke-width="1" opacity="0.44313725490196076" d="M 344.5 500 L 343.5 502 L 344.5 500 Z " /><path fill="rgb(128,197,112)" stroke="rgb(128,197,112)" stroke-width="1" opacity="0.44313725490196076" d="M 170.5 502 L 171.5 504 L 170.5 502 Z " /><path fill="rgb(128,197,112)" stroke="rgb(128,197,112)" stroke-width="1" opacity="0.44313725490196076" d="M 341.5 502 L 340.5 504 L 341.5 502 Z " /><path fill="rgb(128,197,112)" stroke="rgb(128,197,112)" stroke-width="1" opacity="0.44313725490196076" d="M 192.5 511 L 197 511.5 L 192.5 512 L 192.5 511 Z " /><path fill="rgb(108,179,104)" stroke="rgb(108,179,104)" stroke-width="1" opacity="0.8156862745098039" d="M 256.5 0 L 258.5 3 L 256.5 0 Z " /><path fill="rgb(108,179,104)" stroke="rgb(108,179,104)" stroke-width="1" opacity="0.8156862745098039" d="M 264.5 9 L 265.5 11 L 264.5 9 Z " /><path fill="rgb(108,179,104)" stroke="rgb(108,179,104)" stroke-width="1" opacity="0.8156862745098039" d="M 269.5 15 L 270.5 17 L 269.5 15 Z " /><path fill="rgb(108,179,104)" stroke="rgb(108,179,104)" stroke-width="1" opacity="0.8156862745098039" d="M 276.5 24 L 277.5 26 L 276.5 24 Z " /><path fill="rgb(108,179,104)" stroke="rgb(108,179,104)" stroke-width="1" opacity="0.8156862745098039" d="M 283.5 34 L 284.5 36 L 283.5 34 Z " /><path fill="rgb(108,179,104)" stroke="rgb(108,179,104)" stroke-width="1" opacity="0.8156862745098039" d="M 285.5 37 L 286.5 39 L 285.5 37 Z " /><path fill="rgb(108,179,104)" stroke="rgb(108,179,104)" stroke-width="1" opacity="0.8156862745098039" d="M 143.5 67 L 144.5 69 L 143.5 67 Z " /><path fill="rgb(108,179,104)" stroke="rgb(108,179,104)" stroke-width="1" opacity="0.8156862745098039" d="M 414.5 68 L 415 70.5 L 414 70.5 L 414.5 68 Z " /><path fill="rgb(108,179,104)" stroke="rgb(108,179,104)" stroke-width="1" opacity="0.8156862745098039" d="M 147.5 70 L 148.5 72 L 147.5 70 Z " /><path fill="rgb(108,179,104)" stroke="rgb(108,179,104)" stroke-width="1" opacity="0.8156862745098039" d="M 152.5 74 L 153.5 76 L 152.5 74 Z " /><path fill="rgb(108,179,104)" stroke="rgb(108,179,104)" stroke-width="1" opacity="0.8156862745098039" d="M 158.5 79 L 163.5 85 L 158.5 79 Z " /><path fill="rgb(108,179,104)" stroke="rgb(108,179,104)" stroke-width="1" opacity="0.8156862745098039" d="M 348.5 84 L 346.5 87 L 348.5 84 Z " /><path fill="rgb(108,179,104)" stroke="rgb(108,179,104)" stroke-width="1" opacity="0.8156862745098039" d="M 416.5 84 L 417 88.5 L 416 88.5 L 416.5 84 Z " /><path fill="rgb(108,179,104)" stroke="rgb(108,179,104)" stroke-width="1" opacity="0.8156862745098039" d="M 95.5 89 L 96 92.5 L 95 92.5 L 95.5 89 Z " /><path fill="rgb(108,179,104)" stroke="rgb(108,179,104)" stroke-width="1" opacity="0.8156862745098039" d="M 342.5 90 L 341.5 92 L 342.5 90 Z " /><path fill="rgb(108,179,104)" stroke="rgb(108,179,104)" stroke-width="1" opacity="0.8156862745098039" d="M 171.5 92 L 176.5 98 L 171.5 92 Z " /><path fill="rgb(108,179,104)" stroke="rgb(108,179,104)" stroke-width="1" opacity="0.8156862745098039" d="M 179.5 101 L 181.5 104 L 179.5 101 Z " /><path fill="rgb(108,179,104)" stroke="rgb(108,179,104)" stroke-width="1" opacity="0.8156862745098039" d="M 95.5 106 L 96 109.5 L 95 109.5 L 95.5 106 Z " /><path fill="rgb(108,179,104)" stroke="rgb(108,179,104)" stroke-width="1" opacity="0.8156862745098039" d="M 184.5 107 L 185.5 109 L 184.5 107 Z " /><path fill="rgb(108,179,104)" stroke="rgb(108,179,104)" stroke-width="1" opacity="0.8156862745098039" d="M 416.5 110 L 417 114.5 L 416 114.5 L 416.5 110 Z " /><path fill="rgb(108,179,104)" stroke="rgb(108,179,104)" stroke-width="1" opacity="0.8156862745098039" d="M 187.5 111 L 188.5 113 L 187.5 111 Z " /><path fill="rgb(108,179,104)" stroke="rgb(108,179,104)" stroke-width="1" opacity="0.8156862745098039" d="M 415.5 122 L 416 124.5 L 415 124.5 L 415.5 122 Z " /><path fill="rgb(108,179,104)" stroke="rgb(108,179,104)" stroke-width="1" opacity="0.8156862745098039" d="M 414.5 129 L 415 131.5 L 414 131.5 L 414.5 129 Z " /><path fill="rgb(108,179,104)" stroke="rgb(108,179,104)" stroke-width="1" opacity="0.8156862745098039" d="M 457.5 144 L 458 152.5 L 457 152.5 L 457.5 144 Z " /><path fill="rgb(108,179,104)" stroke="rgb(108,179,104)" stroke-width="1" opacity="0.8156862745098039" d="M 54.5 152 L 55 155.5 L 54 155.5 L 54.5 152 Z " /><path fill="rgb(108,179,104)" stroke="rgb(108,179,104)" stroke-width="1" opacity="0.8156862745098039" d="M 54.5 167 L 55 173.5 L 54 173.5 L 54.5 167 Z " /><path fill="rgb(108,179,104)" stroke="rgb(108,179,104)" stroke-width="1" opacity="0.8156862745098039" d="M 457.5 173 L 458 179.5 L 457 179.5 L 457.5 173 Z " /><path fill="rgb(108,179,104)" stroke="rgb(108,179,104)" stroke-width="1" opacity="0.8156862745098039" d="M 456.5 191 L 457 193.5 L 456 193.5 L 456.5 191 Z " /><path fill="rgb(108,179,104)" stroke="rgb(108,179,104)" stroke-width="1" opacity="0.8156862745098039" d="M 455.5 200 L 456 202.5 L 455 202.5 L 455.5 200 Z " /><path fill="rgb(108,179,104)" stroke="rgb(108,179,104)" stroke-width="1" opacity="0.8156862745098039" d="M 453.5 214 L 454 216.5 L 453 216.5 L 453.5 214 Z " /><path fill="rgb(108,179,104)" stroke="rgb(108,179,104)" stroke-width="1" opacity="0.8156862745098039" d="M 427.5 287 L 426.5 289 L 427.5 287 Z " /><path fill="rgb(108,179,104)" stroke="rgb(108,179,104)" stroke-width="1" opacity="0.8156862745098039" d="M 423.5 292 L 422.5 294 L 423.5 292 Z " /><path fill="rgb(108,179,104)" stroke="rgb(108,179,104)" stroke-width="1" opacity="0.8156862745098039" d="M 89.5 293 L 90.5 295 L 89.5 293 Z " /><path fill="rgb(108,179,104)" stroke="rgb(108,179,104)" stroke-width="1" opacity="0.8156862745098039" d="M 417.5 299 L 416.5 301 L 417.5 299 Z " /><path fill="rgb(108,179,104)" stroke="rgb(108,179,104)" stroke-width="1" opacity="0.8156862745098039" d="M 407.5 308 L 406.5 310 L 407.5 308 Z " /><path fill="rgb(108,179,104)" stroke="rgb(108,179,104)" stroke-width="1" opacity="0.8156862745098039" d="M 402.5 312 L 401.5 314 L 402.5 312 Z " /><path fill="rgb(108,179,104)" stroke="rgb(108,179,104)" stroke-width="1" opacity="0.8156862745098039" d="M 399.5 314 L 398.5 316 L 399.5 314 Z " /><path fill="rgb(102,173,102)" stroke="rgb(102,173,102)" stroke-width="1" opacity="1" d="M 256.5 1 L 282 31.5 Q 299.9 57.6 313 88.5 L 325 121.5 L 333 152.5 L 338.5 191 L 408.5 46 L 413 59.5 L 414 70.5 L 416 77.5 L 417 109.5 L 416 110.5 L 416 121.5 L 415 122.5 L 414 135.5 L 411 149.5 L 406 166.5 L 402.5 170 L 392.5 175 L 337.5 210 Q 321.1 221.6 308 236.5 Q 274.5 273.7 259 328 L 256 327.5 L 256.5 1 Z " /><path fill="rgb(102,173,102)" stroke="rgb(102,173,102)" stroke-width="1" opacity="1" d="M 104.5 46 Q 144.1 62.4 171 91.5 L 190 114.5 L 186 124.5 L 179 152.5 L 179 157.5 L 175 176.5 L 175 186 Q 172.3 187.1 173 184.5 Q 140.2 114.3 104 47.5 L 104.5 46 Z " /><path fill="rgb(102,173,102)" stroke="rgb(102,173,102)" stroke-width="1" opacity="1" d="M 56.5 140 L 114.5 172 L 162.5 202 Q 185.9 216.6 204 236.5 Q 237.4 273.8 253 328 L 232.5 328 L 206.5 315 Q 169.2 291.3 140 259.5 Q 114.6 232.4 93 201.5 L 70 166.5 L 59 147.5 L 56.5 140 Z " /><path fill="rgb(102,173,102)" stroke="rgb(102,173,102)" stroke-width="1" opacity="1" d="M 456.5 140 L 457 152.5 L 458 153.5 L 458 172.5 L 457 173.5 L 457 190.5 L 456 191.5 L 455 208.5 L 453 214.5 L 451 230.5 L 443 259.5 Q 431 289 408.5 308 Q 394.4 320.4 375.5 328 L 282.5 328 L 283.5 326 Q 304.1 317.6 320.5 305 Q 348.5 284.5 372 259.5 Q 421.3 206.8 456.5 140 Z " /><path fill="rgb(127,196,109)" stroke="rgb(127,196,109)" stroke-width="1" opacity="0.996078431372549" d="M 255.5 1 L 256 328 Q 252.3 329.5 253 326.5 Q 233.5 262 189.5 222 L 162.5 202 L 107 167.5 L 102 152.5 L 98 134.5 L 98 128.5 L 96 120.5 L 95 93.5 L 96 92.5 L 96 78.5 L 98 71.5 L 98 65.5 L 103.5 46 L 146 128.5 L 173 186 L 175 185.5 L 175 176.5 L 176 175.5 L 179 152.5 L 186 124.5 L 204 77.5 Q 223.9 33.4 255.5 1 Z " /><path fill="rgb(127,196,109)" stroke="rgb(127,196,109)" stroke-width="1" opacity="0.996078431372549" d="M 407.5 46 L 408 47.5 L 338.5 191 L 333 152.5 L 325 121.5 L 322 114.5 L 345.5 87 Q 370.9 60.9 407.5 46 Z " /><path fill="rgb(127,196,109)" stroke="rgb(127,196,109)" stroke-width="1" opacity="0.996078431372549" d="M 55.5 140 Q 96.7 218.3 157.5 277 L 194.5 307 Q 211 319.5 232 327.5 L 137.5 328 Q 109.3 316.7 91 295.5 Q 73 276 65 246.5 L 57 207.5 L 57 199.5 L 55 189.5 L 54 156.5 L 55 155.5 L 55.5 140 Z " /><path fill="rgb(127,196,109)" stroke="rgb(127,196,109)" stroke-width="1" opacity="0.996078431372549" d="M 455.5 140 L 456 141.5 Q 414.7 218.7 354.5 277 Q 326 304.5 289.5 324 L 281.5 328 L 259 328 Q 278 261.7 323.5 221 L 337.5 210 L 392.5 175 L 455.5 140 Z " /><path fill="rgb(0,0,0)" stroke="rgb(0,0,0)" stroke-width="1" opacity="0" d="M 0 0 L 255 0.5 Q 211 45.5 189.5 113 Q 177.4 95.1 161.5 81 Q 137 57.2 102 45 L 98 60.5 L 96 79.5 L 95 80.5 L 95 118.5 L 96 119.5 L 96 127.5 L 97 128.5 L 98 139.5 L 105 165.5 L 103.5 165 L 66.5 144 L 54 139 L 54 186.5 L 55 187.5 L 55 196.5 L 56 197.5 L 56 205.5 L 57 206.5 L 59 224.5 L 65 249.5 Q 76.3 287.2 103.5 309 Q 115.7 319.8 132 326.5 L 110.5 328 L 101 334.5 Q 96.7 339.7 96 348.5 Q 98.3 349.8 97 354.5 L 100 360.5 L 105.5 366 L 112.5 369 L 127 369 L 146 471.5 Q 152.3 489.3 165.5 500 L 181.5 509 L 192 511.5 L 0 512 L 0 0 Z " /><path fill="rgb(0,0,0)" stroke="rgb(0,0,0)" stroke-width="1" opacity="0" d="M 257.5 0 L 512 0 L 512 512 L 320 511.5 Q 342.9 506.9 355 491.5 L 365 474.5 L 368 464.5 L 385 369 L 399.5 369 Q 407.9 366.9 412 360.5 L 415 354.5 L 416 347.5 L 414 339.5 L 408.5 332 L 401.5 328 L 396.5 327 L 380 326.5 Q 406.7 314.7 424 293.5 L 440 268.5 L 447 249.5 L 452 229.5 L 455 206.5 L 456 205.5 L 457 187.5 L 458 186.5 L 458 139 L 445.5 144 L 407.5 166 L 407 163.5 L 411 152.5 L 416 127.5 L 416 119.5 L 417 118.5 L 417 80.5 L 416 79.5 L 414 60.5 L 410 45 Q 366.4 61.2 338 93.5 L 322.5 113 Q 300.5 45.1 257.5 0 Z " /><path fill="rgb(249,182,108)" stroke="rgb(249,182,108)" stroke-width="1" opacity="0.9921568627450981" d="M 112.5 328 L 399.5 328 Q 407.9 330.2 412 336.5 Q 416.5 342 415 353.5 Q 412.1 361.6 405.5 366 Q 398.1 370.8 385 369 L 366 470.5 Q 359.8 489.3 345.5 500 L 329.5 509 L 317.5 512 L 197.5 512 L 186.5 510 L 172.5 504 L 157 490.5 L 148 475.5 L 144 461.5 L 138 424.5 L 133 402.5 L 133 397.5 L 127 369 L 116.5 369 L 108.5 367 L 100 359.5 Q 95.8 354.7 97 344.5 Q 98.7 336.2 104.5 332 L 112.5 328 Z " /></svg>